<svg width="225" height="118" viewBox="0 0 225 118" fill="none" xmlns="http://www.w3.org/2000/svg">
<path d="M106.931 74.7864L101.95 87.3216H100.098L105.079 74.7864H106.931Z" fill="#F3F3F3"/>
<path d="M124.555 30.0175L119.574 42.5528H117.722L122.703 30.0175H124.555Z" fill="#F3F3F3"/>
<path d="M83.2362 67.5775C81.4539 67.5775 80.0827 67.1909 79.1224 66.4178C78.1703 65.6447 77.5355 64.3955 77.2181 62.6703L80.7948 62.1454C80.9413 63.0324 81.2139 63.6916 81.6126 64.1229C82.0114 64.5461 82.5607 64.7577 83.2606 64.7577C83.9767 64.7577 84.5179 64.5176 84.8841 64.0374C85.2585 63.5573 85.4456 62.8696 85.4456 61.9745V52.9535H82.0155V50.1336H89.0345V61.889C89.0345 63.6794 88.5259 65.075 87.5086 66.076C86.4914 67.077 85.0672 67.5775 83.2362 67.5775ZM96.5052 62.9388L94.9793 67.3333H91.3783L97.6527 50.1336H101.901L108.151 67.3333H104.586L103.06 62.9388H96.5052ZM99.7767 52.7826C99.6953 53.1081 99.5814 53.4987 99.4349 53.9544C99.2884 54.4102 99.1826 54.7316 99.1175 54.9188L97.3109 60.2289H102.255L100.399 54.8089C100.285 54.4753 100.18 54.1375 100.082 53.7957C99.9842 53.4539 99.8825 53.1162 99.7767 52.7826ZM116.403 52.9168V67.3333H112.802V52.9168H107.247V50.1336H121.969V52.9168H116.403ZM127.523 50.1336V67.3333H123.922V50.1336H127.523ZM134.078 57.1893V67.3333H130.88V50.1336H134.994L142.599 63.4881C142.452 62.2511 142.379 61.1322 142.379 60.1312V50.1336H145.577V67.3333H141.354L133.859 54.0887C133.932 54.7316 133.985 55.3135 134.017 55.8343C134.058 56.347 134.078 56.7987 134.078 57.1893Z" fill="white"/>
</svg>
